<?xml version="1.0" encoding="utf-8"?>
<!-- Generator: Adobe Illustrator 24.1.0, SVG Export Plug-In . SVG Version: 6.00 Build 0)  -->
<svg version="1.1" id="Layer_1" xmlns="http://www.w3.org/2000/svg" xmlns:xlink="http://www.w3.org/1999/xlink" x="0px" y="0px"
	 viewBox="0 0 206.9 126.5" style="enable-background:new 0 0 206.9 126.5;" xml:space="preserve">
<style type="text/css">
	.st0{fill:#7CDDA3;}
</style>
<g id="Group_30" transform="translate(-1133.065 -663.887)">
	<g id="Group_29">
		<path id="Path_66" class="st0" d="M1146.8,680.8c0-3.4,2.8-6.2,6.2-6.2c0,0,0,0,0,0h4.9c13.5,0,22.9,7.3,22.9,23.9v0.2
			c0,16-8.9,23.6-21.4,24.5h-0.1v22.2h-12.3V680.8z M1159.2,711.8c5.2-0.3,9.1-4,9.1-12.6v-0.2c0-9-3.4-12.8-8.8-12.8h-0.4v25.7
			L1159.2,711.8z"/>
		<path id="Path_67" class="st0" d="M1192.1,674.5h13.1l13.5,71h-12.3l-2.3-14.1h-11.2l-2.2,14.1h-11.9L1192.1,674.5z M1202.2,720.3
			l-3.7-23.4l-3.8,23.4H1202.2z"/>
		<path id="Path_68" class="st0" d="M1227.9,717.5l-13.1-42.9h12.7l6.7,26.5l6.8-26.5h12.4l-13.1,42.9v27.9h-12.3L1227.9,717.5z"/>
		<path id="Path_69" class="st0" d="M1255.5,674.7h7.3l11.8,35.9l11.9-35.9h7.3v70.8h-6.4v-56l-12.6,37.2h-0.4l-12.6-37.2v56h-6.3
			L1255.5,674.7z"/>
		<path id="Path_70" class="st0" d="M1299,674.7h18.7c3.4,0,6.2,2.8,6.2,6.2c0,0,0,0,0,0h-18.3v25.9h16.6v6.2h-16.6v26.4h18.6v6.2
			H1299V674.7z"/>
	</g>
	<path id="Rectangle_17" class="st0" d="M1146.7,757.9h178l0,0v9.8c0,3.4-2.8,6.2-6.2,6.2h-165.6c-3.4,0-6.2-2.8-6.2-6.2V757.9
		L1146.7,757.9z"/>
</g>
</svg>
